<?xml version="1.0" standalone="no"?>
<!DOCTYPE svg PUBLIC "-//W3C//DTD SVG 20010904//EN"
 "http://www.w3.org/TR/2001/REC-SVG-20010904/DTD/svg10.dtd">
<svg version="1.0" xmlns="http://www.w3.org/2000/svg"
 width="1350.000000pt" height="1350.000000pt" viewBox="0 0 1350.000000 1350.000000"
 preserveAspectRatio="xMidYMid meet">
<metadata>
Created by potrace 1.10, written by Peter Selinger 2001-2011
</metadata>
<g transform="translate(0.000000,1350.000000) scale(0.100000,-0.100000)"
fill="#000000" stroke="none">
<path d="M6204 13413 c-5 -25 -15 -54 -46 -133 -5 -14 -20 -56 -33 -95 -13
-38 -33 -95 -45 -125 -12 -30 -24 -66 -27 -80 -3 -14 -12 -34 -19 -45 -8 -11
-14 -28 -14 -38 0 -10 -7 -32 -16 -49 -31 -59 2 -48 76 27 41 41 78 75 82 75
5 0 7 -100 6 -222 l-3 -223 -35 -2 c-72 -5 -399 -56 -500 -78 -36 -8 -78 -16
-95 -18 -16 -2 -52 -10 -80 -17 -27 -6 -77 -19 -110 -27 -60 -15 -132 -34
-215 -58 -132 -38 -168 -49 -198 -61 -18 -8 -39 -14 -47 -14 -8 0 -29 -6 -47
-14 -33 -14 -94 -38 -158 -61 -150 -55 -305 -123 -520 -229 -167 -82 -227
-115 -408 -224 -193 -117 -232 -142 -337 -217 -27 -19 -61 -43 -75 -52 -26
-18 -181 -136 -215 -164 -11 -10 -51 -43 -90 -74 -214 -174 -540 -497 -731
-726 -22 -26 -57 -69 -80 -95 -71 -86 -273 -361 -309 -422 -6 -9 -31 -48 -57
-87 -46 -70 -148 -236 -162 -265 -4 -8 -22 -42 -41 -75 -37 -66 -169 -331
-205 -410 -39 -88 -50 -114 -65 -150 -8 -19 -21 -50 -29 -67 -60 -142 -162
-447 -212 -633 -8 -33 -22 -80 -30 -105 -8 -25 -14 -54 -14 -64 0 -11 -6 -42
-14 -70 -22 -78 -65 -295 -76 -386 -4 -30 -12 -89 -18 -130 -41 -273 -46 -365
-46 -775 0 -420 2 -460 50 -815 34 -256 105 -581 179 -825 6 -22 20 -67 29
-100 10 -33 24 -75 32 -93 8 -18 14 -39 14 -47 0 -8 6 -29 14 -47 13 -31 22
-55 62 -160 9 -24 22 -56 29 -73 7 -16 23 -55 35 -85 46 -114 192 -415 266
-550 149 -272 430 -688 588 -871 37 -42 68 -79 156 -182 120 -140 434 -445
609 -592 14 -11 41 -34 60 -51 160 -138 665 -484 801 -547 8 -4 42 -23 75 -42
108 -63 426 -217 545 -265 30 -12 64 -26 74 -32 11 -6 31 -14 45 -18 14 -5 51
-18 81 -30 30 -12 87 -32 125 -45 39 -13 81 -28 95 -33 14 -5 52 -18 85 -27
33 -10 78 -24 100 -30 290 -88 701 -173 955 -196 71 -6 98 -13 107 -26 10 -13
13 -123 13 -475 l0 -459 48 3 47 3 0 520 0 520 -40 2 c-81 5 -438 55 -530 75
-27 6 -70 14 -95 18 -25 4 -67 13 -95 20 -27 6 -76 18 -107 26 -139 34 -284
73 -328 89 -19 7 -82 27 -140 46 -58 18 -118 38 -135 45 -16 7 -49 19 -72 28
-94 35 -130 49 -163 64 -19 8 -48 21 -65 28 -131 55 -396 185 -490 239 -33 19
-67 38 -75 42 -8 4 -62 35 -120 70 -803 485 -1470 1151 -1947 1943 -31 52 -63
106 -71 120 -7 14 -29 52 -48 85 -18 33 -67 128 -108 210 -66 136 -87 180
-131 283 -8 18 -21 47 -28 65 -8 17 -21 50 -30 72 -33 88 -50 131 -61 160 -7
17 -27 77 -45 135 -19 58 -39 121 -46 140 -12 32 -27 86 -61 215 -7 28 -18 70
-25 95 -7 25 -15 63 -19 85 -4 22 -12 60 -18 85 -46 189 -93 522 -113 810 -24
322 -11 782 27 1028 8 51 14 109 14 127 0 19 6 67 14 107 25 125 39 201 46
248 4 25 13 68 20 95 6 28 19 77 27 110 32 135 88 330 118 415 7 19 18 51 24
70 7 19 16 49 21 65 5 17 18 55 30 85 12 30 25 67 30 81 4 14 12 34 18 45 5
10 18 39 28 64 16 43 43 105 86 200 31 68 147 300 170 340 11 19 31 55 45 80
13 25 33 59 44 75 10 17 23 39 28 50 5 11 21 37 35 58 14 21 26 40 26 42 0 2
19 32 42 67 24 35 47 71 53 80 35 60 238 336 309 422 23 26 58 69 80 95 103
122 329 361 439 461 67 62 140 129 162 150 67 61 346 282 420 333 39 26 104
71 146 100 268 184 682 410 949 517 30 12 64 26 74 32 11 6 31 14 45 18 14 5
51 18 81 30 271 105 587 198 860 253 203 42 336 64 475 78 120 12 226 35 237
52 4 7 8 126 8 265 0 142 4 252 9 252 5 0 42 -34 82 -75 50 -52 76 -72 83 -65
7 7 6 17 -3 33 -8 12 -18 35 -22 52 -4 16 -17 55 -29 85 -41 106 -51 135 -60
165 -4 17 -18 55 -30 85 -12 30 -25 66 -30 80 -4 14 -12 36 -18 50 -6 14 -13
37 -16 53 -4 18 -13 27 -26 27 -13 0 -22 -9 -26 -27z"/>
<path d="M7234 13403 c-39 -91 -44 -105 -44 -121 0 -10 -6 -26 -14 -37 -7 -11
-16 -31 -19 -45 -3 -14 -15 -50 -26 -80 -12 -30 -33 -86 -46 -125 -13 -38 -33
-95 -44 -125 -12 -30 -21 -61 -21 -70 0 -8 35 20 78 63 42 42 83 77 90 77 9 0
12 -62 12 -264 0 -164 4 -267 10 -271 5 -3 51 -10 102 -16 137 -14 312 -38
403 -55 44 -8 116 -22 160 -30 44 -8 103 -22 131 -30 28 -8 59 -14 70 -14 10
0 39 -6 64 -14 25 -8 74 -22 110 -31 74 -20 111 -31 260 -80 163 -53 232 -77
285 -100 17 -7 50 -20 75 -30 167 -65 425 -187 575 -270 33 -19 69 -38 81 -44
11 -5 51 -28 88 -50 36 -23 69 -41 72 -41 2 0 17 -9 32 -19 15 -10 74 -50 132
-88 58 -38 128 -85 155 -103 67 -46 286 -209 306 -229 9 -9 47 -41 84 -71 208
-168 569 -533 752 -761 28 -35 71 -89 95 -119 69 -86 268 -365 268 -375 0 -2
20 -33 45 -69 25 -37 45 -68 45 -71 0 -3 12 -24 27 -48 15 -23 38 -62 51 -86
13 -24 32 -58 43 -75 20 -34 203 -401 225 -453 47 -108 70 -163 89 -213 9 -25
22 -54 28 -65 5 -11 14 -33 18 -50 4 -16 17 -55 29 -85 12 -30 25 -68 30 -85
4 -16 12 -41 17 -55 10 -23 28 -82 58 -190 7 -25 20 -68 29 -96 9 -29 16 -59
16 -68 0 -10 6 -38 14 -64 21 -73 67 -299 90 -442 36 -231 44 -314 66 -713 11
-196 9 -268 -20 -692 -6 -77 -14 -158 -20 -180 -5 -22 -10 -57 -10 -79 0 -36
-12 -109 -45 -281 -30 -158 -47 -232 -60 -276 -8 -26 -15 -55 -15 -65 0 -11
-6 -39 -14 -64 -8 -25 -22 -72 -32 -105 -28 -98 -46 -158 -59 -195 -7 -19 -18
-51 -24 -70 -7 -19 -17 -50 -21 -69 -5 -18 -13 -38 -19 -44 -6 -6 -11 -20 -11
-32 0 -12 -7 -30 -15 -41 -8 -10 -15 -28 -15 -39 0 -11 -7 -29 -15 -39 -8 -11
-15 -26 -15 -33 0 -7 -14 -43 -31 -80 -16 -38 -36 -81 -43 -98 -32 -71 -80
-173 -101 -215 -13 -25 -40 -79 -61 -120 -21 -41 -56 -106 -79 -145 -22 -38
-44 -77 -48 -85 -4 -8 -16 -28 -27 -45 -11 -16 -23 -37 -27 -45 -4 -8 -14 -26
-24 -40 -9 -14 -48 -72 -86 -130 -96 -144 -160 -237 -202 -291 -20 -25 -58
-74 -86 -109 -325 -412 -779 -842 -1190 -1125 -168 -116 -184 -127 -345 -224
-216 -131 -539 -295 -730 -371 -30 -12 -68 -27 -85 -34 -16 -8 -50 -21 -75
-31 -25 -9 -60 -23 -78 -31 -18 -8 -41 -14 -50 -14 -10 0 -22 -4 -27 -9 -17
-15 -346 -115 -510 -154 -33 -8 -82 -21 -110 -27 -27 -7 -68 -16 -90 -20 -99
-18 -175 -32 -240 -46 -38 -8 -86 -14 -105 -14 -19 0 -55 -5 -80 -11 -25 -6
-97 -14 -160 -18 l-115 -6 -3 -505 c-1 -278 0 -515 3 -528 4 -18 12 -22 45
-22 21 0 42 4 45 10 3 5 6 214 5 463 0 361 2 456 13 465 7 6 53 16 102 22 50
6 127 17 171 25 45 8 94 15 108 15 15 0 55 6 89 14 34 8 98 21 142 31 44 9
103 23 131 31 28 8 59 14 70 14 10 0 39 6 64 14 25 8 72 22 105 31 33 9 74 21
90 26 17 6 53 17 80 25 28 8 64 19 80 24 17 5 73 24 125 43 52 19 104 38 115
42 24 8 159 62 200 80 17 7 46 20 65 28 36 16 192 89 270 126 42 21 53 26 98
51 9 5 40 21 67 35 57 29 77 41 235 136 160 97 180 110 348 226 72 50 284 209
318 239 12 11 43 37 70 59 382 317 833 816 1074 1190 8 13 31 47 51 77 57 83
110 168 129 203 6 11 19 34 29 50 70 109 240 444 316 623 8 18 21 47 28 65 8
17 22 52 32 77 9 25 22 56 27 70 6 14 14 36 18 50 5 14 18 50 30 80 12 30 25
69 30 85 5 17 14 46 21 65 6 19 17 51 24 70 12 35 31 99 61 208 8 31 22 78 30
103 8 26 14 55 14 64 0 10 6 41 14 69 23 81 63 287 76 386 4 36 13 97 19 135
39 254 45 360 45 775 0 452 -16 657 -75 970 -6 30 -14 83 -19 117 -4 34 -11
67 -15 73 -4 6 -10 35 -15 63 -7 52 -20 106 -47 207 -8 30 -21 78 -28 105 -22
82 -47 168 -60 205 -7 19 -18 51 -24 70 -7 19 -16 49 -21 65 -5 17 -18 55 -30
85 -12 30 -25 66 -30 80 -4 14 -12 36 -18 50 -5 14 -18 45 -27 70 -10 25 -23
59 -31 75 -46 105 -61 139 -96 215 -55 117 -104 214 -143 285 -18 33 -42 76
-52 95 -37 66 -64 115 -81 142 -9 14 -30 48 -46 75 -52 85 -139 216 -196 293
-30 41 -68 93 -83 115 -56 82 -262 334 -357 436 -97 104 -361 365 -455 450
-91 81 -237 200 -350 285 -126 94 -154 114 -325 227 -58 38 -116 77 -130 86
-14 10 -32 20 -40 24 -8 4 -37 21 -65 38 -27 16 -63 37 -80 45 -16 8 -46 24
-65 36 -41 24 -320 165 -400 201 -61 28 -214 91 -275 114 -22 8 -52 21 -67 29
-14 8 -33 14 -42 14 -8 0 -30 6 -48 14 -85 36 -228 84 -318 106 -19 4 -48 13
-65 18 -42 15 -223 60 -340 85 -152 33 -268 53 -540 94 l-120 18 -3 214 c-1
118 1 218 6 223 5 5 41 -26 81 -67 40 -41 77 -75 82 -75 13 0 11 27 -3 53 -6
12 -15 35 -19 52 -4 16 -17 55 -29 85 -40 105 -51 135 -60 165 -9 30 -21 63
-60 165 -12 30 -25 68 -29 84 -10 43 -28 43 -47 -1z"/>
<path d="M6445 11955 c-5 -2 -71 -8 -145 -14 -332 -28 -694 -93 -980 -176 -25
-8 -72 -21 -105 -31 -33 -9 -75 -23 -93 -30 -18 -8 -39 -14 -47 -14 -8 0 -29
-6 -47 -14 -18 -8 -51 -21 -73 -29 -210 -78 -334 -131 -540 -233 -71 -35 -157
-79 -190 -98 -33 -19 -71 -41 -85 -48 -22 -12 -129 -77 -184 -111 -497 -309
-996 -764 -1361 -1241 -93 -122 -235 -322 -235 -331 0 -2 -19 -32 -43 -67 -24
-35 -46 -70 -50 -78 -4 -8 -21 -37 -38 -65 -16 -27 -37 -63 -45 -80 -8 -16
-30 -57 -49 -90 -76 -137 -225 -454 -225 -479 0 -8 -4 -17 -10 -21 -5 -3 -14
-20 -19 -38 -5 -18 -19 -57 -31 -87 -43 -111 -52 -136 -59 -165 -5 -16 -13
-41 -18 -55 -10 -23 -28 -82 -58 -190 -7 -25 -20 -68 -29 -96 -9 -29 -16 -60
-16 -69 0 -10 -6 -41 -14 -69 -38 -135 -91 -436 -106 -606 -5 -58 -14 -139
-19 -180 -17 -125 -14 -692 4 -875 16 -160 36 -311 56 -415 6 -30 14 -82 19
-115 4 -33 13 -73 19 -88 6 -16 11 -40 11 -54 0 -15 7 -51 16 -82 8 -31 22
-81 30 -111 44 -161 73 -257 90 -298 8 -18 14 -39 14 -47 0 -8 6 -29 14 -47
13 -31 22 -53 61 -158 39 -104 56 -144 117 -280 38 -85 149 -305 183 -365 19
-33 39 -69 45 -80 6 -11 19 -33 30 -50 11 -16 24 -39 30 -50 17 -31 31 -55 78
-123 23 -35 42 -65 42 -67 0 -10 172 -244 289 -393 133 -169 421 -470 585
-611 27 -23 54 -48 61 -54 16 -16 90 -78 142 -119 23 -18 69 -54 102 -81 70
-55 166 -123 306 -214 55 -35 111 -73 125 -82 14 -10 32 -20 40 -24 8 -4 29
-16 45 -26 17 -11 48 -29 70 -41 22 -12 65 -36 95 -53 51 -28 254 -130 325
-162 122 -56 166 -75 174 -75 5 0 22 -6 38 -14 15 -8 46 -21 68 -29 22 -8 58
-21 80 -30 158 -59 239 -86 325 -107 19 -4 49 -13 65 -18 17 -6 57 -18 90 -26
33 -8 87 -21 120 -29 371 -92 768 -137 1205 -137 393 0 714 32 1070 106 103
22 280 65 360 88 25 8 72 21 105 31 33 10 71 22 85 28 14 5 39 13 55 17 17 5
55 18 85 30 99 38 134 51 167 61 18 5 35 14 38 19 4 6 13 10 21 10 12 0 50 16
179 75 71 32 274 134 325 162 30 17 73 41 95 53 22 12 54 30 70 41 17 10 37
22 45 26 8 4 26 14 40 24 14 9 72 48 130 86 155 102 238 160 303 212 125 98
143 113 186 149 24 20 50 42 56 49 7 6 34 31 61 54 164 141 451 441 585 611
96 123 279 370 289 392 3 6 23 38 45 71 47 71 61 93 75 120 6 11 19 34 30 50
11 17 24 39 30 50 6 11 26 47 44 80 99 175 237 472 301 645 25 68 47 125 61
158 8 18 14 39 14 47 0 8 6 29 14 47 14 33 29 80 61 193 9 33 22 76 28 95 6
19 14 53 18 75 4 22 12 58 18 80 38 148 87 439 101 595 5 58 14 139 19 180 16
121 13 699 -4 868 -17 169 -42 354 -57 427 -6 28 -14 73 -18 100 -4 28 -12 71
-19 98 -19 81 -33 140 -42 182 -5 22 -18 72 -30 110 -11 39 -24 86 -29 105 -4
19 -13 49 -19 65 -21 57 -63 180 -71 210 -11 39 -38 111 -49 133 -5 9 -17 37
-26 62 -10 25 -24 60 -32 77 -7 18 -20 47 -27 65 -16 36 -202 414 -216 438 -5
8 -42 71 -83 140 -79 134 -256 400 -278 420 -3 3 -41 52 -84 109 -198 264
-563 640 -795 822 -30 24 -57 46 -60 49 -22 27 -461 340 -476 340 -1 0 -23 14
-47 30 -25 17 -47 30 -51 30 -3 0 -22 12 -43 26 -21 14 -47 30 -58 35 -11 6
-47 25 -80 44 -63 35 -278 142 -355 177 -102 47 -208 91 -287 122 -98 37 -180
66 -218 76 -16 4 -41 12 -55 18 -23 9 -64 21 -190 58 -130 37 -417 104 -445
104 -11 0 -51 6 -90 14 -222 46 -587 77 -905 75 -140 0 -259 -2 -265 -4z m745
-490 c80 -9 182 -22 226 -30 45 -8 94 -15 108 -15 15 0 55 -6 89 -14 34 -8 98
-21 142 -31 44 -9 103 -22 130 -30 28 -7 77 -20 110 -29 33 -9 85 -24 115 -33
52 -15 75 -22 160 -53 19 -6 46 -14 60 -17 14 -3 34 -12 45 -19 11 -8 27 -14
36 -14 10 0 30 -6 46 -14 15 -8 69 -31 118 -52 136 -55 284 -125 400 -188 127
-69 161 -88 190 -107 17 -10 39 -23 50 -29 110 -58 396 -264 575 -413 212
-178 434 -402 626 -633 95 -115 344 -461 344 -479 0 -2 12 -23 28 -47 44 -69
51 -82 62 -103 6 -11 26 -47 45 -80 32 -54 147 -284 181 -360 7 -16 24 -55 38
-86 22 -50 41 -98 66 -169 5 -14 18 -50 30 -80 12 -30 25 -68 30 -85 4 -16 12
-41 17 -55 11 -26 28 -83 56 -180 8 -30 22 -80 31 -111 9 -31 16 -64 16 -74 0
-10 6 -41 14 -69 8 -28 21 -87 30 -131 8 -44 21 -119 30 -166 9 -48 16 -102
16 -121 0 -19 7 -81 16 -139 12 -80 16 -186 17 -459 0 -361 -9 -500 -48 -716
-8 -45 -15 -92 -15 -105 0 -22 -11 -77 -42 -209 -6 -25 -14 -63 -18 -85 -4
-22 -17 -76 -30 -120 -12 -44 -26 -93 -31 -110 -33 -120 -56 -188 -105 -317
-9 -24 -23 -61 -31 -83 -24 -63 -59 -145 -101 -235 -71 -154 -159 -324 -213
-413 -16 -26 -29 -50 -29 -53 0 -2 -9 -17 -19 -32 -10 -15 -50 -74 -88 -132
-99 -149 -222 -322 -242 -340 -3 -3 -35 -41 -71 -85 -91 -113 -124 -149 -305
-330 -168 -168 -218 -214 -330 -305 -37 -30 -73 -59 -79 -65 -12 -11 -132
-100 -216 -161 -51 -37 -124 -86 -162 -109 -122 -75 -236 -143 -248 -149 -8
-4 -42 -22 -75 -41 -64 -36 -172 -90 -245 -123 -93 -42 -156 -69 -200 -87 -25
-9 -58 -23 -75 -30 -51 -22 -139 -53 -245 -87 -36 -11 -80 -27 -98 -34 -18 -8
-40 -14 -48 -14 -9 0 -37 -7 -63 -15 -183 -57 -456 -109 -786 -150 -179 -22
-814 -22 -959 0 -55 8 -115 15 -134 15 -19 0 -73 7 -121 16 -320 59 -356 67
-551 121 -154 43 -360 111 -445 148 -16 7 -50 20 -75 30 -133 53 -329 146
-445 210 -33 19 -67 37 -75 41 -8 4 -64 37 -123 73 -60 36 -116 71 -125 76
-71 43 -355 245 -372 264 -3 3 -41 35 -85 71 -116 93 -151 126 -345 320 -97
96 -211 218 -254 270 -43 52 -86 104 -95 115 -9 11 -30 38 -46 60 -16 22 -33
42 -36 45 -8 7 -86 120 -172 250 -38 58 -78 117 -88 132 -10 15 -19 30 -19 33
0 3 -11 22 -23 43 -13 20 -43 73 -67 117 -91 167 -196 392 -254 543 -74 193
-98 263 -135 397 -5 17 -19 66 -31 110 -13 44 -26 98 -30 120 -4 22 -12 60
-18 85 -32 130 -57 286 -88 530 -13 103 -17 217 -17 480 0 350 12 527 49 720
8 42 14 90 14 107 0 17 5 44 10 59 6 14 15 54 20 88 12 76 41 196 76 307 8 26
14 54 14 63 0 8 6 30 14 48 7 18 23 62 34 98 34 106 65 194 87 245 7 17 20 50
30 75 10 25 27 65 38 90 23 53 193 398 207 420 5 8 35 58 66 110 107 182 306
465 420 599 220 259 418 456 660 657 137 113 435 324 529 374 11 6 34 19 50
30 17 11 39 24 50 30 11 5 47 25 80 44 87 50 319 164 433 212 74 32 99 42 142
59 25 9 56 22 70 27 14 6 39 14 55 19 17 4 64 19 105 33 77 27 125 42 220 69
112 32 146 40 185 47 22 4 60 12 85 18 114 28 334 63 530 85 181 21 732 22
920 2z"/>
<path d="M6675 10328 c-3 -7 -6 -101 -7 -208 l-3 -195 -200 -5 c-110 -3 -206
-9 -212 -13 -13 -8 -18 -83 -7 -111 5 -14 32 -16 198 -16 138 0 197 -4 209
-12 15 -11 17 -39 19 -213 l3 -200 60 0 60 0 3 199 c1 127 6 204 13 213 9 10
57 13 209 13 171 0 199 2 204 16 11 28 6 101 -7 113 -9 7 -86 12 -213 13
l-199 3 -3 208 -2 207 -61 0 c-38 0 -61 -4 -64 -12z"/>
<path d="M4605 10230 c-68 -32 -87 -69 -94 -181 -5 -77 -10 -103 -27 -126 -24
-32 -78 -42 -116 -22 -12 7 -36 16 -53 20 -16 4 -56 17 -89 29 -61 23 -89 21
-166 -15 -14 -7 -43 -20 -65 -30 -90 -40 -113 -52 -185 -94 -112 -66 -184
-125 -232 -189 -83 -109 -78 -68 -78 -662 0 -590 -2 -570 70 -661 88 -113 275
-235 480 -314 25 -9 54 -22 65 -28 11 -5 33 -14 50 -18 16 -4 46 -13 65 -20
19 -6 51 -17 70 -24 112 -39 463 -126 570 -140 25 -3 55 -13 68 -21 l22 -14 0
-474 c0 -385 -2 -475 -13 -479 -17 -6 -100 9 -126 23 -11 5 -29 10 -40 10 -11
0 -35 6 -53 14 -18 7 -58 21 -88 31 -155 47 -344 133 -462 208 -75 49 -182
157 -209 215 -29 58 -31 186 -5 223 9 13 16 29 16 35 0 7 -36 30 -80 53 -109
56 -210 123 -272 182 -28 27 -54 49 -57 49 -8 0 -32 -37 -53 -84 -17 -35 -18
-82 -18 -571 0 -595 -4 -557 74 -663 33 -46 162 -155 206 -175 8 -4 31 -17 50
-28 42 -25 93 -51 140 -72 82 -36 107 -46 145 -60 22 -8 58 -22 80 -30 22 -8
67 -23 100 -32 33 -10 78 -24 100 -31 57 -17 159 -43 330 -84 28 -6 75 -15
105 -20 31 -4 72 -15 93 -23 l37 -16 0 -475 c0 -444 -1 -475 -17 -478 -25 -5
-134 19 -213 47 -19 7 -60 20 -90 29 -78 25 -117 40 -235 91 -94 41 -200 98
-225 120 -9 8 -21 15 -27 15 -17 0 -162 153 -184 195 -27 53 -31 190 -5 226 9
13 16 29 16 36 0 7 -36 30 -79 52 -106 53 -210 122 -273 182 -28 27 -54 49
-57 49 -8 0 -32 -37 -53 -84 -17 -35 -18 -82 -18 -571 0 -486 2 -536 18 -572
31 -70 93 -143 171 -201 97 -72 96 -71 221 -133 111 -55 140 -68 205 -92 22
-8 58 -21 80 -30 147 -54 511 -148 670 -173 21 -3 51 -12 66 -19 l26 -14 5
-233 c5 -236 8 -258 49 -328 5 -8 13 -24 18 -35 16 -36 150 -163 223 -212 180
-120 427 -216 713 -276 433 -92 943 -104 1385 -31 248 41 418 88 614 169 267
111 463 269 524 425 23 58 30 135 31 332 l1 187 28 15 c15 8 46 17 67 20 106
17 367 78 470 111 22 7 67 20 100 30 58 17 87 27 178 61 68 26 96 38 210 95
136 68 129 63 215 128 40 29 92 79 116 110 79 104 76 76 76 670 0 486 -1 532
-18 567 -21 47 -45 84 -53 84 -3 0 -28 -22 -57 -49 -72 -69 -175 -135 -299
-195 -57 -27 -62 -38 -37 -75 28 -39 23 -165 -9 -226 -28 -55 -130 -163 -192
-203 -127 -82 -315 -168 -475 -218 -30 -9 -71 -22 -90 -29 -81 -29 -199 -55
-217 -48 -10 4 -13 96 -13 480 l0 474 37 16 c21 8 62 19 93 23 53 8 83 14 215
47 143 34 339 91 418 119 176 65 279 110 367 163 19 11 42 24 50 28 44 20 171
128 206 174 77 103 74 76 74 668 0 486 -1 532 -18 567 -21 47 -45 84 -53 84
-3 0 -30 -23 -59 -50 -73 -69 -166 -130 -297 -195 -29 -14 -53 -30 -53 -36 0
-5 7 -24 16 -41 27 -52 23 -162 -9 -224 -78 -153 -341 -319 -667 -419 -30 -10
-70 -24 -88 -31 -18 -8 -42 -14 -53 -14 -11 0 -29 -5 -40 -10 -26 -14 -109
-29 -126 -23 -11 4 -13 94 -13 479 l0 474 23 14 c12 8 42 18 67 21 107 15 421
92 555 137 17 5 44 13 60 18 37 10 90 29 130 46 17 7 68 28 115 48 188 78 309
155 407 260 108 116 103 81 103 698 0 592 5 551 -78 660 -72 96 -226 201 -419
284 -21 9 -51 23 -66 30 -37 18 -62 18 -98 -1 -16 -8 -44 -23 -61 -32 -39 -20
-181 -30 -220 -14 -46 18 -62 55 -69 161 -5 81 -10 102 -30 129 -26 36 -93 71
-134 71 -58 0 -131 -57 -149 -117 -4 -13 -7 -137 -7 -277 -1 -287 -4 -304 -72
-339 -37 -19 -39 -19 -79 -1 -22 10 -45 29 -51 43 -8 17 -14 129 -17 306 -5
279 -5 280 -30 313 -30 40 -87 72 -130 72 -67 0 -144 -61 -155 -124 -3 -17 -7
-146 -8 -286 -2 -286 -4 -292 -72 -325 -36 -16 -39 -16 -77 1 -22 10 -45 29
-51 43 -8 17 -14 129 -17 306 -5 277 -5 280 -29 312 -30 40 -91 73 -134 73
-39 0 -103 -36 -131 -73 -16 -21 -21 -48 -26 -126 -6 -108 -22 -144 -68 -162
-30 -12 -149 -16 -159 -5 -4 4 -6 25 -6 48 4 79 7 78 -208 78 -188 0 -229 -6
-229 -34 0 -23 25 -26 206 -26 l175 0 -3 -102 -3 -103 -180 -3 c-99 -1 -184
-7 -189 -12 -6 -6 -4 -15 4 -25 10 -13 45 -15 216 -15 224 0 205 -5 209 60 5
73 -3 67 95 73 96 6 118 16 162 73 17 22 22 44 26 113 4 99 15 134 50 161 30
24 89 26 120 4 45 -31 50 -65 50 -331 0 -137 4 -262 8 -278 13 -59 89 -115
154 -115 66 0 133 49 150 111 6 19 10 145 10 282 0 189 3 256 14 281 39 94
164 85 194 -14 7 -21 11 -132 11 -276 0 -132 3 -254 7 -270 13 -58 89 -114
154 -114 66 0 133 49 150 111 6 19 10 148 10 287 0 271 3 292 52 326 29 21 87
20 117 0 34 -24 51 -75 51 -154 0 -39 6 -85 14 -103 19 -46 76 -87 121 -87 40
0 85 -36 85 -68 0 -10 4 -22 9 -28 5 -5 24 -44 41 -87 31 -73 36 -79 104 -124
91 -60 186 -155 216 -217 29 -62 32 -174 5 -227 -37 -71 -86 -126 -170 -189
-79 -59 -82 -61 -205 -120 -58 -28 -118 -58 -133 -66 -16 -8 -36 -14 -45 -14
-9 0 -26 -7 -36 -15 -11 -8 -28 -15 -38 -15 -9 0 -32 -6 -50 -14 -31 -13 -72
-25 -200 -60 -119 -33 -145 -39 -183 -46 -22 -4 -60 -12 -85 -18 -25 -6 -82
-19 -127 -28 -46 -10 -83 -22 -82 -28 0 -6 -2 -285 -4 -621 l-4 -609 -50 -46
c-128 -118 -320 -214 -568 -284 -141 -40 -163 -46 -183 -46 -11 0 -47 -6 -79
-14 -32 -8 -99 -18 -150 -21 -109 -8 -106 -12 -102 131 2 75 0 97 -12 105 -19
12 -132 12 -145 0 -5 -6 -7 -231 -4 -593 l5 -583 78 -3 77 -3 0 113 c0 62 4
119 9 126 5 8 37 15 82 18 238 15 599 94 777 170 18 8 37 14 43 14 6 0 52 20
103 45 93 45 116 52 116 38 0 -5 0 -174 1 -377 l0 -369 -38 -39 c-52 -53 -161
-126 -263 -175 -86 -42 -112 -52 -230 -92 -138 -46 -156 -51 -176 -51 -12 0
-39 -6 -60 -13 -22 -8 -66 -17 -100 -20 l-61 -6 -62 61 -63 61 -82 -82 -81
-81 -195 0 -195 0 -81 81 -82 82 -63 -61 -64 -61 -60 6 c-33 3 -77 12 -99 20
-21 7 -48 13 -60 13 -11 0 -41 7 -66 15 -86 28 -175 58 -215 72 -41 15 -204
93 -240 116 -42 26 -131 96 -158 124 l-28 30 0 369 c1 203 1 372 1 377 0 14
23 7 116 -38 51 -25 99 -45 106 -45 8 0 23 -7 34 -15 10 -8 27 -15 36 -15 10
0 32 -6 50 -14 115 -48 536 -136 654 -136 27 0 66 -3 86 -6 l37 -7 3 -121 3
-121 80 0 80 0 0 590 0 590 -50 3 c-27 2 -65 1 -82 -3 l-33 -6 0 -121 0 -120
-92 7 c-51 3 -119 13 -151 21 -32 8 -68 14 -79 14 -12 0 -46 7 -77 16 -31 8
-81 22 -111 31 -245 69 -434 164 -562 283 l-50 45 -5 610 c-2 336 -6 615 -8
621 -4 12 -70 31 -150 44 -27 4 -72 13 -100 20 -27 6 -77 19 -110 27 -173 42
-307 82 -393 119 -18 8 -39 14 -47 14 -7 0 -26 6 -42 14 -15 8 -75 38 -133 66
-123 59 -126 61 -205 120 -80 59 -130 114 -162 175 -36 69 -37 178 -2 245 46
88 186 209 312 269 48 23 72 55 88 116 24 90 42 125 68 132 40 10 92 54 107
90 8 18 14 61 14 95 0 83 15 132 47 158 31 24 89 26 121 4 49 -34 52 -55 52
-326 0 -139 4 -268 10 -287 17 -62 84 -111 150 -111 64 0 141 56 154 114 4 15
7 137 7 270 0 142 4 255 11 276 29 96 147 108 193 20 12 -24 15 -77 15 -282 0
-139 4 -268 10 -287 17 -62 84 -111 150 -111 64 0 141 56 154 114 4 16 7 141
7 278 1 267 6 301 51 332 31 22 90 20 120 -4 35 -27 46 -62 50 -161 4 -69 9
-91 26 -113 44 -57 66 -67 162 -73 l90 -6 0 -41 c0 -92 -14 -86 215 -86 170 0
205 2 215 15 8 10 10 19 4 25 -5 5 -90 11 -189 12 l-180 3 -3 103 -3 102 179
0 c153 0 182 2 193 16 11 14 10 18 -6 30 -27 20 -397 20 -414 0 -6 -7 -10 -34
-10 -60 1 -25 -1 -49 -4 -53 -11 -10 -129 -6 -159 6 -46 18 -62 54 -68 162 -5
78 -10 105 -26 126 -28 37 -92 73 -131 73 -43 0 -104 -33 -134 -73 -24 -32
-24 -35 -29 -312 -3 -176 -10 -290 -17 -306 -6 -14 -29 -33 -51 -43 -38 -17
-41 -17 -77 -1 -68 33 -70 39 -72 325 -1 140 -5 269 -8 286 -11 63 -88 124
-155 124 -43 0 -100 -32 -130 -72 -25 -33 -25 -34 -30 -313 -3 -177 -9 -289
-17 -306 -6 -14 -29 -33 -51 -43 -38 -17 -41 -17 -77 -1 -68 33 -70 39 -72
325 -1 140 -4 268 -7 283 -8 42 -43 85 -86 107 -48 25 -83 25 -135 0z m796
-5426 c8 -8 20 -14 26 -14 6 0 26 -8 45 -17 18 -9 41 -20 50 -25 25 -12 98
-38 133 -48 17 -4 44 -13 60 -18 116 -40 321 -86 452 -102 l72 -9 67 -70 c36
-39 69 -71 73 -71 3 0 32 26 65 58 l58 57 240 -1 240 -2 60 -58 59 -59 70 73
70 73 72 9 c131 16 336 62 452 102 17 5 44 14 60 18 38 11 110 37 133 49 73
37 171 81 180 81 7 0 12 -8 12 -17 0 -10 0 -180 0 -377 0 -326 -2 -362 -18
-379 -19 -22 -154 -125 -192 -146 -54 -31 -148 -78 -166 -84 -10 -3 -44 -15
-74 -27 -149 -57 -320 -99 -555 -136 -157 -24 -653 -24 -810 0 -314 49 -511
106 -710 204 -126 62 -167 89 -257 172 l-38 35 0 360 c0 198 0 368 0 379 0 15
5 17 28 11 15 -3 34 -13 43 -21z m1157 -1449 c0 -47 -4 -85 -8 -85 -8 0 -18
151 -12 170 2 6 7 8 12 5 5 -3 8 -43 8 -90z m147 2 c0 -120 -19 -118 -23 1 -2
73 0 93 10 90 9 -3 13 -29 13 -91z m-387 -3 c-4 -90 -21 -85 -20 6 1 89 0 86
12 74 6 -6 10 -41 8 -80z m113 79 c5 -58 1 -163 -6 -163 -6 0 -11 38 -13 85
-2 54 1 85 8 85 5 0 10 -3 11 -7z m459 -66 c0 -34 -4 -68 -9 -76 -5 -8 -9 19
-9 68 0 46 4 79 9 75 5 -3 9 -33 9 -67z m150 0 c0 -93 -17 -106 -22 -16 -4 79
-2 93 13 84 5 -4 9 -34 9 -68z m148 -13 c-4 -94 -23 -89 -21 6 2 92 1 86 13
74 6 -6 10 -41 8 -80z m114 4 c5 -87 3 -102 -13 -93 -12 8 -12 175 0 175 5 0
11 -37 13 -82z m-1072 3 c0 -50 -13 -74 -24 -45 -8 21 -8 79 1 87 16 17 23 4
23 -42z m570 -1 c0 -27 -4 -50 -10 -50 -14 0 -23 45 -16 75 11 42 26 28 26
-25z m150 1 c0 -54 -13 -73 -29 -42 -15 26 -14 64 1 79 22 22 28 13 28 -37z
m150 -6 c0 -59 -14 -72 -31 -28 -12 33 -2 83 17 83 10 0 14 -14 14 -55z"/>
</g>
</svg>
